<?xml version="1.0" encoding="UTF-8"?>
<svg width="303px" height="463px" viewBox="0 0 303 463" version="1.1" xmlns="http://www.w3.org/2000/svg" xmlns:xlink="http://www.w3.org/1999/xlink">
    <!-- Generator: Sketch 51.3 (57544) - http://www.bohemiancoding.com/sketch -->
    <title>Group</title>
    <desc>Created with Sketch.</desc>
    <defs></defs>
    <g id="Page-1" stroke="none" stroke-width="1" fill="none" fill-rule="evenodd">
        <g id="Group" transform="translate(1.000000, 1.000000)" stroke="#979797">
            <rect id="Rectangle" fill="#542020" x="79.5" y="354.5" width="141" height="29"></rect>
            <rect id="Rectangle-Copy" fill="#542020" x="92.5" y="393.5" width="116" height="29"></rect>
            <rect id="Rectangle-Copy-2" fill="#542020" x="106.5" y="432.5" width="90" height="29"></rect>
            <path d="M150.5,242 C185.583304,242 128.16761,363.824029 150.5,343.179688 C171.233542,324.01334 273,163.450276 273,135 C273,75.9055318 218.154882,28 150.5,28 C82.8451181,28 28,75.9055318 28,135 C28,168.232491 123.286225,323.554186 150.5,343.179688 C171.67813,358.45252 120.891662,242 150.5,242 Z" id="Oval" fill="#B62727"></path>
            <circle id="Oval-2" fill="#E6E212" cx="287" cy="36" r="14"></circle>
            <circle id="Oval-2-Copy" fill="#E6E212" cx="14" cy="42" r="14"></circle>
            <circle id="Oval-2-Copy-2" fill="#E6E212" cx="78" cy="14" r="14"></circle>
            <circle id="Oval-2-Copy-3" fill="#E6E212" cx="235" cy="14" r="14"></circle>
        </g>
    </g>
</svg>